<svg width="24" height="25" viewBox="0 0 24 25" fill="none" xmlns="http://www.w3.org/2000/svg">
<mask id="mask0_47_4446" style="mask-type:luminance" maskUnits="userSpaceOnUse" x="0" y="0" width="24" height="25">
<path d="M23.5568 10.0181H12.375V14.6545H18.8114C18.2114 17.6 15.7023 19.2909 12.375 19.2909C8.44773 19.2909 5.28409 16.1272 5.28409 12.2C5.28409 8.27268 8.44773 5.10904 12.375 5.10904C14.0659 5.10904 15.5932 5.70904 16.7932 6.69086L20.2841 3.19995C18.1568 1.34541 15.4296 0.199951 12.375 0.199951C5.72046 0.199951 0.375 5.54541 0.375 12.2C0.375 18.8545 5.72046 24.2 12.375 24.2C18.375 24.2 23.8296 19.8363 23.8296 12.2C23.8296 11.4909 23.7205 10.7272 23.5568 10.0181Z" fill="white"/>
</mask>
<g mask="url(#mask0_47_4446)">
<path d="M25.4659 25.291L8.55682 12.2L6.375 10.5637L25.4659 5.10913V25.291Z" fill="#4285F4"/>
</g>
</svg>
