<svg width="111" height="40" viewBox="0 0 111 40" fill="none" xmlns="http://www.w3.org/2000/svg">
<g clip-path="url(#clip0_43_965)">
<g clip-path="url(#clip1_43_965)">
<g clip-path="url(#clip2_43_965)">
<path d="M22.8344 1.11414C22.8344 0.498818 22.5859 0 22.2793 0C21.9727 0 21.7241 0.498818 21.7241 1.11414V38.9845C21.7241 39.5999 21.9727 40.0987 22.2793 40.0987C22.5859 40.0987 22.8344 39.5999 22.8344 38.9845V1.11414Z" fill="#262626"/>
<g clip-path="url(#clip3_43_965)">
<g clip-path="url(#clip4_43_965)">
<g clip-path="url(#clip5_43_965)">
<g clip-path="url(#clip6_43_965)">
<path d="M27.8273 12.7984V5.74072H25.741V4.10529H27.8273V1.4017H29.9946V4.10529H32.081V5.74072H29.9946V12.7984H27.8273ZM34.0054 12.7984V0.583984H36.1697V4.76912C36.6233 4.51777 37.1299 4.31862 37.6895 4.17167C38.2492 4.02472 38.8355 3.9514 39.4491 3.9514C40.1626 3.9514 40.8032 4.05701 41.3706 4.26823C41.9381 4.47945 42.4198 4.78209 42.8155 5.17647C43.2112 5.57265 43.5148 6.05362 43.7268 6.61878C43.9387 7.18213 44.0445 7.81759 44.0445 8.52578V12.7984H41.8862V8.61328C41.8862 8.2008 41.8203 7.82484 41.6884 7.48478C41.5565 7.1429 41.3637 6.84901 41.1098 6.60369C40.8559 6.35838 40.5484 6.16828 40.1866 6.03341C39.823 5.89672 39.4111 5.82822 38.9515 5.82822C38.4 5.82822 37.8874 5.91663 37.4138 6.09375C36.9422 6.27088 36.5274 6.49416 36.1697 6.76362V12.7984H34.0054ZM46.0589 8.42319C46.0589 7.83389 46.1779 7.27054 46.4157 6.73344C46.6555 6.19423 47.0002 5.71869 47.4498 5.30621C47.8974 4.89373 48.4471 4.56484 49.0985 4.31952C49.7499 4.07421 50.4903 3.9514 51.3198 3.9514C52.145 3.9514 52.8884 4.07511 53.55 4.32254C54.2095 4.56997 54.7701 4.91003 55.2317 5.34242C55.6933 5.77482 56.0471 6.28385 56.2929 6.86923C56.5387 7.45249 56.6616 8.0783 56.6616 8.74605C56.6616 8.83053 56.6607 8.92015 56.6586 9.0146C56.6565 9.11115 56.6505 9.19866 56.6406 9.27711H48.472C48.5659 9.53661 48.7169 9.77498 48.9247 9.99223C49.1306 10.2074 49.3902 10.3935 49.7041 10.5505C50.0158 10.7074 50.3764 10.829 50.7862 10.9156C51.196 11.0022 51.6495 11.0453 52.1471 11.0453C52.6447 11.0453 53.1402 10.9919 53.634 10.8854C54.1256 10.7807 54.5962 10.647 55.0458 10.4841L55.7773 12.1497C55.4934 12.2824 55.2068 12.3992 54.9169 12.4997C54.6271 12.6002 54.3243 12.6838 54.0087 12.7501C53.6948 12.8165 53.3663 12.8669 53.0224 12.901C52.6786 12.9351 52.3159 12.9523 51.9343 12.9523C50.9631 12.9523 50.1117 12.8346 49.3803 12.5993C48.6489 12.3639 48.0365 12.042 47.5428 11.6337C47.0511 11.2273 46.6803 10.7487 46.4306 10.1974C46.1827 9.64825 46.0589 9.05684 46.0589 8.42319ZM48.472 7.5753H54.3654C54.2874 7.33391 54.1666 7.10971 54.0027 6.90242C53.8387 6.69331 53.6349 6.51106 53.3911 6.35627C53.1474 6.20148 52.8645 6.07957 52.5428 5.99116C52.2212 5.90275 51.8674 5.8584 51.4817 5.8584C51.0719 5.8584 50.6984 5.90577 50.3605 6.00021C50.0248 6.09285 49.7301 6.21747 49.4762 6.37437C49.2223 6.53128 49.0116 6.71323 48.8437 6.92052C48.6759 7.1257 48.5521 7.34386 48.472 7.5753Z" fill="#262626"/>
<path d="M25.8579 21.772C25.8579 21.0801 25.9877 20.4543 26.2476 19.8951C26.5054 19.3378 26.863 18.8623 27.3208 18.4679C27.7764 18.0717 28.3181 17.767 28.9455 17.5536C29.5711 17.3403 30.2494 17.2338 30.9809 17.2338C31.2947 17.2338 31.6035 17.2528 31.9071 17.2911C32.2129 17.3313 32.5058 17.3856 32.7854 17.4541C33.0672 17.5226 33.331 17.6049 33.5768 17.7015C33.8226 17.7981 34.0406 17.9028 34.2303 18.0153V13.8604H36.3976V26.0808H34.2303V25.2631C34.0406 25.3959 33.8166 25.5217 33.5588 25.6403C33.2989 25.757 33.0214 25.8596 32.7255 25.9481C32.4278 26.0365 32.1191 26.1071 31.7992 26.1593C31.4794 26.2097 31.1637 26.2347 30.852 26.2347C30.1184 26.2347 29.4461 26.127 28.8346 25.9118C28.223 25.6946 27.6976 25.3898 27.2578 24.9976C26.8181 24.6053 26.4754 24.1355 26.2296 23.5884C25.9817 23.0393 25.8579 22.4337 25.8579 21.772ZM28.1361 21.772C28.1361 22.1199 28.2051 22.4488 28.3429 22.7587C28.4829 23.0685 28.6838 23.3401 28.9455 23.5734C29.2054 23.8066 29.5189 23.9907 29.8867 24.1255C30.2563 24.2604 30.67 24.3277 31.1278 24.3277C31.4215 24.3277 31.7144 24.2996 32.0061 24.2432C32.2998 24.1868 32.5816 24.1074 32.8514 24.0048C33.1233 23.9001 33.3769 23.7746 33.6128 23.6277C33.8505 23.4807 34.0564 23.316 34.2303 23.1328V20.1215C34.0124 19.9443 33.7816 19.7947 33.5378 19.6719C33.292 19.5491 33.0432 19.4486 32.7914 19.3701C32.5375 19.2917 32.2809 19.2343 32.021 19.1981C31.7633 19.1598 31.5123 19.1408 31.2686 19.1408C30.771 19.1408 30.3283 19.2081 29.9407 19.343C29.551 19.4778 29.2234 19.6637 28.9575 19.9012C28.6916 20.1365 28.4889 20.4141 28.3489 20.734C28.2072 21.0517 28.1361 21.3978 28.1361 21.772ZM39.0475 21.9319V17.3817H41.2058V21.6241C41.2058 22.0263 41.2499 22.3936 41.3377 22.7255C41.4255 23.0574 41.5754 23.341 41.7873 23.5764C41.9993 23.8117 42.2819 23.9949 42.6357 24.1255C42.9894 24.2562 43.43 24.3217 43.9576 24.3217C44.2073 24.3217 44.4603 24.2945 44.716 24.2402C44.9717 24.1859 45.2166 24.1105 45.4505 24.0139C45.6843 23.9195 45.9031 23.8057 46.1069 23.6729C46.3087 23.5402 46.4825 23.3953 46.6285 23.2384V17.3817H48.7958V26.0808H46.6285V25.3355C46.097 25.6554 45.5635 25.8838 45.0278 26.0205C44.4903 26.1593 43.9795 26.2287 43.496 26.2287C42.7067 26.2287 42.0301 26.133 41.4666 25.942C40.903 25.7489 40.4414 25.4704 40.0817 25.1062C39.7241 24.7402 39.4621 24.2906 39.2963 23.7574C39.1305 23.2242 39.0475 22.6159 39.0475 21.9319ZM51.5476 26.0808V17.3877H53.7119V18.1239C54.2896 17.7959 54.8399 17.5657 55.3636 17.433C55.8873 17.3002 56.4008 17.2338 56.9044 17.2338C57.5639 17.2338 58.1733 17.3304 58.733 17.5235C59.2944 17.7187 59.78 18.0072 60.1898 18.3895C60.5996 18.7736 60.9203 19.2515 61.1521 19.8227C61.3838 20.3939 61.4998 21.0559 61.4998 21.8082V26.0808H59.3415V22.1612C59.3415 21.6845 59.2746 21.259 59.1406 20.8849C59.0067 20.5086 58.8139 20.1918 58.5621 19.9344C58.3103 19.6749 58.0054 19.4778 57.6478 19.343C57.2881 19.2081 56.8864 19.1408 56.4428 19.1408C56.209 19.1408 55.9692 19.1658 55.7233 19.2162C55.4754 19.2645 55.2338 19.3339 54.9979 19.4244C54.762 19.515 54.5342 19.6275 54.3145 19.7624C54.0947 19.8991 53.8939 20.053 53.7119 20.224V26.0808H51.5476ZM63.748 23.341C63.748 22.9225 63.8379 22.5414 64.0178 22.1974C64.1977 21.8534 64.4683 21.5577 64.8302 21.3103C65.192 21.0629 65.6416 20.8719 66.1791 20.737C66.7187 20.6021 67.3473 20.5348 68.0646 20.5348C68.5961 20.5348 69.1558 20.5741 69.7433 20.6525C70.3329 20.731 70.9393 20.8508 71.5628 21.0116C71.5389 20.7379 71.4558 20.4844 71.314 20.2512C71.1723 20.018 70.9762 19.8158 70.7265 19.6447C70.4747 19.4757 70.1719 19.3451 69.8182 19.2524C69.4645 19.158 69.0628 19.1106 68.6132 19.1106C68.3695 19.1106 68.1015 19.1257 67.8098 19.1559C67.516 19.1861 67.2133 19.2304 66.9015 19.2887C66.5898 19.3469 66.281 19.4205 65.9753 19.5089C65.6695 19.5973 65.3856 19.7029 65.1239 19.8257L64.4645 18.0364C64.7903 17.9178 65.1398 17.8101 65.5136 17.7136C65.8874 17.6149 66.269 17.5295 66.6587 17.4571C67.0505 17.3868 67.4411 17.3313 67.8308 17.2911C68.2205 17.2528 68.5982 17.2338 68.9639 17.2338C70.5787 17.2338 71.7796 17.6481 72.5671 18.477C73.3524 19.3077 73.7451 20.5801 73.7451 22.294V26.0808H71.5778V25.2631C71.3539 25.3959 71.1093 25.5217 70.8434 25.6403C70.5775 25.757 70.288 25.8596 69.9741 25.9481C69.6623 26.0365 69.3275 26.1071 68.9699 26.1593C68.6102 26.2097 68.2304 26.2347 67.8308 26.2347C67.1572 26.2347 66.5658 26.1614 66.0562 26.0144C65.5466 25.8675 65.1209 25.6635 64.7792 25.4019C64.4375 25.1424 64.1797 24.8367 64.0058 24.4846C63.834 24.1346 63.748 23.7535 63.748 23.341ZM66.0292 23.2656C66.0292 23.4083 66.0661 23.5453 66.1401 23.6759C66.2142 23.8066 66.3311 23.9225 66.4908 24.023C66.6527 24.1234 66.8587 24.204 67.1084 24.2643C67.3602 24.3268 67.6638 24.3579 68.0196 24.3579C68.4012 24.3579 68.77 24.3238 69.1258 24.2553C69.4816 24.185 69.8131 24.0933 70.121 23.9807C70.4288 23.8682 70.7064 23.7384 70.9543 23.5915C71.204 23.4445 71.4121 23.2918 71.5778 23.1328V22.7496C71.246 22.657 70.9184 22.5785 70.5946 22.5143C70.2688 22.4518 69.9591 22.4017 69.6653 22.3634C69.3695 22.3272 69.0907 22.3021 68.829 22.2879C68.5691 22.272 68.3413 22.2638 68.1455 22.2638C67.74 22.2638 67.403 22.291 67.1353 22.3453C66.8677 22.3996 66.6506 22.472 66.4849 22.5625C66.3191 22.6531 66.2022 22.7596 66.1341 22.8824C66.0643 23.0052 66.0292 23.1328 66.0292 23.2656ZM76.6648 26.0808V17.3877H78.8291V18.1239C79.3708 17.7899 79.8993 17.5588 80.4149 17.4299C80.9305 17.2993 81.4341 17.2338 81.9257 17.2338C82.613 17.2338 83.2446 17.3445 83.8202 17.5657C84.3978 17.7869 84.8912 18.1209 85.301 18.5675C85.6167 18.3222 85.9284 18.114 86.2363 17.9429C86.5441 17.7739 86.8517 17.6372 87.1595 17.5325C87.4674 17.426 87.7792 17.3494 88.0948 17.3032C88.4126 17.257 88.7393 17.2338 89.075 17.2338C89.7825 17.2338 90.424 17.3304 90.9995 17.5235C91.5772 17.7187 92.0688 18.0072 92.4743 18.3895C92.882 18.7736 93.1968 19.2515 93.4186 19.8227C93.6404 20.3939 93.7513 21.0559 93.7513 21.8082V26.0808H91.593V22.1612C91.593 21.6845 91.5262 21.259 91.3922 20.8849C91.2582 20.5086 91.0706 20.1918 90.8286 19.9344C90.5867 19.6749 90.299 19.4778 89.9653 19.343C89.6317 19.2081 89.2648 19.1408 88.8652 19.1408C88.6455 19.1408 88.4206 19.1619 88.1907 19.2042C87.9608 19.2464 87.7381 19.3119 87.5223 19.4003C87.3043 19.4887 87.1005 19.6003 86.9107 19.7352C86.7189 19.8701 86.5531 20.0279 86.4131 20.209V26.0808H84.2518V22.1612C84.2518 21.6845 84.185 21.259 84.051 20.8849C83.917 20.5086 83.7293 20.1918 83.4874 19.9344C83.2455 19.6749 82.956 19.4778 82.6181 19.343C82.2785 19.2081 81.9068 19.1408 81.503 19.1408C81.2533 19.1408 81.0024 19.1671 80.7506 19.2193C80.5009 19.2696 80.2599 19.3421 80.0282 19.4365C79.7965 19.5291 79.5785 19.6417 79.3747 19.7745C79.1729 19.9072 78.991 20.0572 78.8291 20.224V26.0808H76.6648ZM97.6153 16.2019C97.4016 16.2019 97.2076 16.1717 97.0338 16.1113C96.862 16.0489 96.7151 15.9656 96.5931 15.8609C96.4711 15.7544 96.3773 15.6307 96.3113 15.4897C96.2454 15.3509 96.2124 15.2031 96.2124 15.0462C96.2124 14.8832 96.2454 14.7324 96.3113 14.5936C96.3773 14.4527 96.4711 14.3311 96.5931 14.2285C96.7151 14.1259 96.862 14.0435 97.0338 13.981C97.2076 13.9186 97.4016 13.8875 97.6153 13.8875C97.835 13.8875 98.032 13.9186 98.2058 13.981C98.3797 14.0435 98.5275 14.1259 98.6495 14.2285C98.7715 14.3311 98.8653 14.4527 98.9313 14.5936C98.9972 14.7324 99.0302 14.8832 99.0302 15.0462C99.0302 15.2031 98.9972 15.3509 98.9313 15.4897C98.8653 15.6307 98.7715 15.7544 98.6495 15.8609C98.5275 15.9656 98.3797 16.0489 98.2058 16.1113C98.032 16.1717 97.835 16.2019 97.6153 16.2019ZM96.5331 26.0808V17.3877H98.7004V26.0808H96.5331ZM100.88 25.064L101.818 23.4134C102.403 23.7674 103.047 24.0281 103.748 24.1949C104.452 24.3618 105.172 24.4454 105.91 24.4454C106.407 24.4454 106.822 24.4113 107.154 24.3428C107.486 24.2743 107.751 24.1859 107.951 24.0773C108.151 23.9686 108.292 23.8458 108.374 23.7091C108.458 23.5725 108.5 23.4324 108.5 23.2897C108.5 23.0824 108.411 22.9056 108.233 22.7587C108.055 22.6117 107.761 22.5384 107.352 22.5384C107.16 22.5384 106.954 22.5505 106.734 22.5746C106.516 22.5987 106.287 22.625 106.045 22.6531C105.803 22.6793 105.551 22.7043 105.289 22.7285C105.029 22.7526 104.765 22.7647 104.495 22.7647C103.909 22.7647 103.411 22.7013 102.999 22.5746C102.587 22.4458 102.252 22.272 101.992 22.0526C101.734 21.8314 101.546 21.5698 101.428 21.2681C101.312 20.9642 101.254 20.6383 101.254 20.2904C101.254 19.8478 101.356 19.4404 101.56 19.0684C101.766 18.6942 102.059 18.3714 102.438 18.0998C102.82 17.8261 103.281 17.614 103.82 17.4631C104.358 17.3101 104.959 17.2338 105.622 17.2338C105.97 17.2338 106.332 17.2549 106.71 17.2972C107.088 17.3373 107.46 17.3928 107.825 17.4631C108.191 17.5316 108.543 17.611 108.88 17.7015C109.216 17.792 109.514 17.8886 109.774 17.9912L109.093 19.6869C108.542 19.4797 107.991 19.3167 107.442 19.1981C106.892 19.0774 106.327 19.0171 105.748 19.0171C105.342 19.0171 104.999 19.0473 104.72 19.1076C104.438 19.1701 104.21 19.2515 104.036 19.352C103.86 19.4525 103.731 19.5684 103.65 19.699C103.569 19.8279 103.53 19.9636 103.53 20.1064C103.53 20.209 103.551 20.3025 103.593 20.387C103.635 20.4694 103.703 20.5418 103.796 20.6042C103.892 20.6646 104.017 20.7108 104.171 20.743C104.325 20.7753 104.514 20.7913 104.738 20.7913C104.944 20.7913 105.16 20.7792 105.388 20.7551C105.618 20.731 105.858 20.7047 106.108 20.6767C106.355 20.6504 106.612 20.6254 106.878 20.6012C107.144 20.575 107.415 20.562 107.693 20.562C108.211 20.562 108.664 20.6232 109.051 20.7461C109.439 20.8689 109.76 21.0409 110.014 21.262C110.267 21.4832 110.458 21.7439 110.586 22.0435C110.712 22.3432 110.775 22.6702 110.775 23.0242C110.775 23.4807 110.67 23.9053 110.46 24.2975C110.25 24.6898 109.939 25.0299 109.525 25.3174C109.109 25.605 108.593 25.8304 107.975 25.9933C107.358 26.1541 106.644 26.2347 105.835 26.2347C105.337 26.2347 104.857 26.2045 104.393 26.1442C103.929 26.0817 103.488 25.9984 103.068 25.8937C102.648 25.7872 102.255 25.6623 101.887 25.5196C101.519 25.3787 101.183 25.2269 100.88 25.064Z" fill="#262626"/>
<path d="M27.8273 39.3604V32.3027H25.741V30.6673H27.8273V27.9637H29.9946V30.6673H32.081V32.3027H29.9946V39.3604H27.8273ZM33.5948 34.9852C33.5948 34.3959 33.7147 33.8326 33.9545 33.2955C34.1922 32.7562 34.536 32.2807 34.9857 31.8682C35.4353 31.4557 35.9848 31.1269 36.6344 30.8815C37.2858 30.6362 38.0262 30.5134 38.8556 30.5134C39.6809 30.5134 40.4243 30.6371 41.0859 30.8846C41.7474 31.132 42.308 31.472 42.7675 31.9044C43.2292 32.3368 43.5829 32.8459 43.8287 33.4312C44.0766 34.0145 44.2004 34.6403 44.2004 35.3081C44.2004 35.3925 44.1983 35.4822 44.1944 35.5766C44.1923 35.6732 44.1863 35.7607 44.1764 35.8391H36.0109C36.1029 36.0986 36.2528 36.337 36.4605 36.5542C36.6682 36.7694 36.9281 36.9556 37.2399 37.1125C37.5516 37.2694 37.9123 37.391 38.322 37.4776C38.7318 37.5642 39.1854 37.6073 39.683 37.6073C40.1806 37.6073 40.6761 37.5539 41.1698 37.4474C41.6614 37.3427 42.132 37.209 42.5817 37.0461L43.3131 38.7117C43.0313 38.8444 42.7444 38.9612 42.4528 39.0617C42.1629 39.1622 41.8613 39.2458 41.5475 39.3121C41.2318 39.3785 40.9021 39.4289 40.5583 39.463C40.2144 39.4971 39.8529 39.5143 39.4731 39.5143C38.5019 39.5143 37.6497 39.3966 36.9161 39.1613C36.1847 38.9259 35.5732 38.604 35.0816 38.1957C34.5879 37.7893 34.2174 37.3107 33.9695 36.7594C33.7198 36.2103 33.5948 35.6189 33.5948 34.9852ZM36.0109 34.1373H41.9012C41.8233 33.8959 41.7025 33.6717 41.5385 33.4644C41.3745 33.2553 41.1707 33.0731 40.927 32.9183C40.6833 32.7635 40.4003 32.6416 40.0787 32.5532C39.757 32.4648 39.4033 32.4204 39.0175 32.4204C38.6077 32.4204 38.2351 32.4678 37.8994 32.5622C37.5615 32.6549 37.266 32.7795 37.0121 32.9364C36.7582 33.0933 36.5474 33.2752 36.3796 33.4825C36.2117 33.6877 36.0888 33.9059 36.0109 34.1373ZM46.008 35.0365C46.008 34.3989 46.124 33.8033 46.3557 33.2502C46.5874 32.6971 46.9261 32.2182 47.3719 31.8139C47.8176 31.4075 48.3641 31.0897 49.0116 30.8604C49.657 30.629 50.3944 30.5134 51.2239 30.5134C51.5857 30.5134 51.9493 30.5354 52.315 30.5798C52.6807 30.6242 53.0335 30.6863 53.3732 30.7669C53.7128 30.8474 54.0317 30.9428 54.3294 31.0535C54.6253 31.1643 54.8831 31.2859 55.1028 31.4186L54.1016 33.0631C53.628 32.8419 53.1804 32.679 52.7586 32.5743C52.3369 32.4717 51.9082 32.4204 51.4727 32.4204C50.9751 32.4204 50.5293 32.4859 50.1357 32.6165C49.74 32.7472 49.4043 32.9294 49.1285 33.1627C48.8527 33.3959 48.6429 33.6705 48.499 33.9864C48.3551 34.3024 48.2832 34.6472 48.2832 35.0214C48.2832 35.3956 48.3602 35.7405 48.514 36.0564C48.6678 36.3723 48.8848 36.6448 49.1645 36.8741C49.4463 37.1034 49.7859 37.2823 50.1837 37.4112C50.5794 37.5418 51.0221 37.6073 51.5116 37.6073C52.0473 37.6073 52.5527 37.531 53.0284 37.378C53.5042 37.2271 53.9466 37.0241 54.3564 36.7685L55.3606 38.4099C55.1007 38.5668 54.8201 38.7126 54.5183 38.8475C54.2164 38.9823 53.8938 39.0988 53.55 39.1975C53.2044 39.2962 52.8426 39.3734 52.4649 39.4298C52.0872 39.4863 51.6954 39.5143 51.2898 39.5143C50.4664 39.5143 49.728 39.4018 49.0746 39.1764C48.419 38.951 47.8644 38.6384 47.4109 38.238C46.9573 37.8375 46.6105 37.365 46.3707 36.8198C46.1288 36.2745 46.008 35.6801 46.008 35.0365ZM57.6957 39.3604V27.146H59.86V31.3311C60.3136 31.0798 60.8202 30.8806 61.3798 30.7337C61.9374 30.5867 62.524 30.5134 63.1395 30.5134C63.8508 30.5134 64.4914 30.619 65.0609 30.8302C65.6284 31.0415 66.1101 31.3441 66.5058 31.7385C66.9015 32.1347 67.2051 32.6156 67.4171 33.1808C67.629 33.7441 67.7348 34.3796 67.7348 35.0878V39.3604H65.5765V35.1753C65.5765 34.7628 65.5106 34.3868 65.3787 34.0468C65.2468 33.7049 65.054 33.411 64.8001 33.1657C64.5462 32.9204 64.2375 32.7303 63.8739 32.5954C63.5103 32.4587 63.0996 32.3902 62.6418 32.3902C62.0903 32.3902 61.5777 32.4786 61.1041 32.6558C60.6304 32.8329 60.2159 33.0562 59.86 33.3256V39.3604H57.6957Z" fill="#262626"/>
</g>
</g>
</g>
</g>
<g clip-path="url(#clip7_43_965)">
<g clip-path="url(#clip8_43_965)">
<path d="M12.1241 29.4314V29.4997C12.1241 29.7893 11.8901 30.0244 11.6029 30.0244H8.70093C8.41325 30.0244 8.17944 29.7891 8.17944 29.4997V29.4314C8.17944 29.1428 8.41188 28.9077 8.69817 28.9067H11.6056C11.8917 28.9077 12.1241 29.1428 12.1241 29.4314Z" fill="#262626"/>
<path d="M13.8761 27.993L13.8756 28.0624C13.8756 28.3515 13.6418 28.5871 13.3544 28.5871H6.94968C6.662 28.5871 6.42773 28.3515 6.42773 28.0624V27.9934C6.42773 27.7043 6.662 27.4688 6.94968 27.4688H13.3544C13.6421 27.4685 13.8761 27.7043 13.8761 27.993Z" fill="#262626"/>
<path d="M13.8761 26.5552L13.8756 26.6242C13.8756 26.9138 13.6418 27.1494 13.3544 27.1494H6.94968C6.662 27.1494 6.42773 26.9138 6.42773 26.6242V26.5559C6.42773 26.2661 6.662 26.0312 6.94968 26.0312H13.3544C13.6421 26.0312 13.8761 26.2661 13.8761 26.5552Z" fill="#262626"/>
<path d="M15.1571 17.4728C14.7549 18.1209 13.6505 18.2476 13.0444 18.2663C13.0471 18.1288 13.0325 17.9848 13.0006 17.8344C12.9756 17.7188 12.9392 17.6119 12.8922 17.5134C13.716 17.0847 14.0115 16.4677 14.0241 16.4407C14.0615 16.3607 14.0273 16.2665 13.9487 16.2289C13.8698 16.1911 13.7752 16.2252 13.7373 16.3048C13.7346 16.3101 13.463 16.8667 12.718 17.2446C12.6254 17.1366 12.5135 17.0441 12.3826 16.9682C11.7449 16.6004 10.7948 16.7146 10.2098 16.8397C9.92261 16.6165 9.6056 16.2695 9.59735 15.8207C9.59437 15.6978 9.61637 15.569 9.66199 15.4377C9.6911 15.3549 9.64755 15.2635 9.56503 15.2344C9.48205 15.2054 9.3915 15.249 9.36262 15.332C9.3358 15.4096 9.3154 15.4871 9.30188 15.5637C9.00481 15.38 8.48653 14.9977 8.42304 14.5381C8.41135 14.4506 8.33089 14.39 8.24425 14.4024C8.15783 14.4142 8.09708 14.4949 8.10923 14.5819C8.20482 15.276 9.01787 15.7771 9.28606 15.9243C9.31953 16.2854 9.50543 16.6288 9.82978 16.9336C9.75001 16.956 9.70003 16.9719 9.6888 16.9756C9.68605 16.9765 9.68353 16.9774 9.68124 16.9788C9.66795 16.9839 8.81868 17.309 8.02327 17.3166C8.00792 17.3145 7.99256 17.3145 7.9772 17.3166C7.57813 17.3145 7.1967 17.2287 6.94753 16.9779C6.88541 16.9153 6.78547 16.9153 6.72336 16.9779C6.66124 17.0404 6.66124 17.141 6.72336 17.2035C7.02226 17.5044 7.45366 17.617 7.89835 17.6318C8.00631 17.8798 8.15508 18.3791 7.96368 18.6968C7.82133 18.9331 7.50386 19.0529 7.01951 19.0529C6.93172 19.0529 6.86112 19.1246 6.86112 19.2125C6.86112 19.3004 6.93195 19.372 7.01951 19.372C7.62213 19.372 8.03107 19.2005 8.23462 18.8623C8.28115 18.7854 8.31393 18.7038 8.33547 18.6202C8.62636 18.5344 9.61683 18.2861 10.3219 18.6385C10.4005 18.6777 10.4959 18.6454 10.5346 18.5665C10.5736 18.4876 10.5415 18.3918 10.4631 18.3526C9.73603 17.9892 8.79644 18.1671 8.37261 18.2783C8.36619 18.0293 8.29788 17.7914 8.23668 17.6258C8.99724 17.5762 9.71127 17.309 9.79081 17.2778C9.8747 17.2515 11.4061 16.7728 12.2252 17.2455C12.4743 17.3893 12.6265 17.6041 12.6905 17.9022C12.7283 18.0787 12.7377 18.2407 12.7189 18.3902C12.7157 18.402 12.7134 18.4147 12.7134 18.428C12.6813 18.6255 12.5974 18.7995 12.4606 18.9532C11.5175 20.0153 8.47668 19.7155 8.44573 19.7125C8.3584 19.7038 8.28092 19.7672 8.27175 19.8551C8.26327 19.9426 8.32654 20.021 8.41364 20.0298C8.44115 20.033 8.6016 20.0485 8.84619 20.0607C8.57524 20.2617 8.19427 20.4569 7.73537 20.4587H7.72895C7.16507 20.4587 6.59018 20.1673 6.01987 19.5937C5.17198 18.7398 4.94734 17.902 5.37071 17.1712C5.61484 16.7513 5.98457 16.5127 5.99168 16.5081C6.06594 16.4617 6.08864 16.3632 6.04188 16.2882C5.9958 16.2135 5.89792 16.1908 5.82366 16.2372C5.80876 16.2467 5.50412 16.4414 5.23707 16.7988C4.9957 16.383 4.93083 16.0173 5.0459 15.71C5.23249 15.2098 5.8585 14.9266 6.33184 14.7799C6.3307 14.8657 6.33963 14.9509 6.36141 15.0356C6.58697 15.9239 8.02419 16.357 8.0854 16.3747C8.09984 16.3793 8.11519 16.381 8.12963 16.381C8.19794 16.381 8.26144 16.3357 8.28184 16.2665C8.30637 16.1818 8.25823 16.0932 8.17456 16.0683C8.16104 16.0646 6.84874 15.6685 6.66834 14.9562C6.59453 14.6652 6.72954 14.3443 7.06971 14.0023C7.49675 13.5725 7.93755 13.3694 8.37972 13.398C9.0981 13.4451 9.60284 14.0921 9.61178 14.1039C9.66451 14.1738 9.76445 14.1874 9.83391 14.1336C9.90359 14.0803 9.91666 13.9799 9.86348 13.91C9.85087 13.8932 9.68537 13.6781 9.40388 13.4707C11.0087 12.4326 12.2614 13.264 13.0753 14.2527C12.6437 14.4209 12.2932 14.7834 12.0837 15.1131C11.0694 14.8438 10.9626 14.3198 10.9576 14.2919C10.9445 14.2056 10.8654 14.1461 10.779 14.1583C10.6923 14.1708 10.6314 14.2513 10.6437 14.3387C10.6486 14.3699 10.7604 15.0635 11.9317 15.4013C11.8774 15.5344 11.8407 15.6825 11.8756 15.8002C11.9001 15.8849 11.9884 15.9338 12.072 15.9089C12.1564 15.884 12.2043 15.7954 12.1795 15.7109C12.1708 15.674 12.2034 15.5134 12.3558 15.2769C12.5623 14.9553 12.9387 14.581 13.3759 14.4945C13.9746 14.3775 14.5433 14.8369 15.0203 15.8251C15.3568 16.5229 15.4031 17.0771 15.1571 17.4728Z" fill="#262626"/>
<path d="M13.289 18.5742L11.1728 25.7122H9.1307L7.66711 20.7757C7.68752 20.7766 7.70838 20.7777 7.72924 20.7777H7.73657C8.47398 20.775 9.02893 20.3571 9.31981 20.0744C9.35465 20.0749 9.38995 20.0749 9.42571 20.0749C10.4625 20.0749 12.0129 19.9353 12.6969 19.1663C12.8494 18.9948 12.9516 18.801 13.0041 18.5874C13.0933 18.5851 13.1889 18.5811 13.289 18.5742Z" fill="#262626"/>
<path d="M16.9361 17.2399C16.9361 18.6072 16.5359 19.9261 15.7795 21.0544C15.6658 21.2023 13.9365 23.4826 13.5432 25.7339C13.4824 25.7196 13.4194 25.7118 13.3543 25.7118H11.5038L13.6296 18.541C14.3044 18.4545 15.0657 18.2224 15.426 17.6421C15.7332 17.1465 15.693 16.4884 15.3054 15.6857C14.6567 14.3414 13.9354 14.1042 13.4137 14.1656C12.6481 13.1903 11.1246 11.8825 9.1084 13.2856C8.90577 13.1799 8.66875 13.0978 8.40354 13.08C7.86533 13.044 7.34132 13.2777 6.84551 13.7768C6.62821 13.9951 6.48013 14.2131 6.40036 14.428C5.85871 14.5759 5.00578 14.9109 4.74882 15.598C4.58515 16.0362 4.6867 16.5405 5.04864 17.0987C4.73346 17.7101 4.63879 18.6545 5.79568 19.8195C6.2963 20.3232 6.80838 20.6296 7.3239 20.7355L8.79941 25.712H6.94958C6.88426 25.712 6.82076 25.7198 6.75979 25.7341C6.36713 23.4831 4.63742 21.2028 4.52395 21.0546C3.76706 19.9261 3.36707 18.6072 3.36707 17.2401C3.36707 13.4743 6.41068 10.4106 10.1518 10.4106C13.8927 10.4104 16.9361 13.4741 16.9361 17.2399Z" fill="#262626"/>
<path d="M3.556 12.2576C3.59635 12.2576 3.63715 12.2421 3.66809 12.2107C3.72998 12.1482 3.72998 12.0474 3.66809 11.9851L3.09389 11.4071C3.03177 11.3448 2.9316 11.3448 2.86971 11.4071C2.80759 11.4694 2.80759 11.5704 2.86971 11.6327L3.44369 12.2107C3.47486 12.2421 3.51543 12.2576 3.556 12.2576Z" fill="#262626"/>
<path d="M1.81662 10.1214C1.75473 10.0591 1.65433 10.0591 1.59244 10.1214C1.53055 10.1837 1.53055 10.2848 1.59244 10.3471L2.16664 10.9251C2.19758 10.9562 2.23816 10.9719 2.27873 10.9719C2.3193 10.9719 2.35988 10.9562 2.39082 10.9251C2.45294 10.8625 2.45294 10.7617 2.39082 10.6992L1.81662 10.1214Z" fill="#262626"/>
<path d="M2.9818 10.9719C3.02237 10.9719 3.06295 10.9562 3.09389 10.9251L3.66809 10.3471C3.72998 10.2848 3.72998 10.1837 3.66809 10.1214C3.6062 10.0591 3.50581 10.0591 3.44369 10.1214L2.86971 10.6994C2.80759 10.7619 2.80759 10.8628 2.86971 10.9251C2.90065 10.9565 2.94123 10.9719 2.9818 10.9719Z" fill="#262626"/>
<path d="M2.16664 11.407L1.59244 11.985C1.53055 12.0475 1.53055 12.1483 1.59244 12.2106C1.62338 12.242 1.66396 12.2575 1.70453 12.2575C1.7451 12.2575 1.78567 12.242 1.81662 12.2106L2.39082 11.6326C2.45294 11.5703 2.45294 11.4693 2.39082 11.407C2.32916 11.3449 2.22876 11.3447 2.16664 11.407Z" fill="#262626"/>
<path d="M1.63826 19.4535C1.57637 19.3912 1.47597 19.3912 1.41385 19.4535C1.35196 19.5158 1.35196 19.6168 1.41385 19.6794L1.98805 20.2573C2.01923 20.2885 2.05957 20.3039 2.10037 20.3039C2.14072 20.3039 2.18152 20.2885 2.21246 20.2573C2.27435 20.1948 2.27435 20.094 2.21246 20.0315L1.63826 19.4535Z" fill="#262626"/>
<path d="M0.711366 18.9715C0.742311 19.0028 0.782886 19.0183 0.823459 19.0183C0.864031 19.0183 0.904603 19.0028 0.935548 18.9715C0.997438 18.9092 0.997438 18.8081 0.935548 18.7458L0.361345 18.1678C0.299454 18.1055 0.199056 18.1055 0.137166 18.1678C0.0750463 18.2301 0.0750463 18.3312 0.137166 18.3935L0.711366 18.9715Z" fill="#262626"/>
<path d="M1.98829 18.1678L1.41409 18.7458C1.3522 18.8083 1.3522 18.9092 1.41409 18.9717C1.44504 19.0028 1.48584 19.0185 1.52618 19.0185C1.56676 19.0185 1.60733 19.0031 1.63827 18.9717L2.21248 18.3935C2.27437 18.3312 2.27437 18.2301 2.21248 18.1678C2.15059 18.1055 2.05018 18.1055 1.98829 18.1678Z" fill="#262626"/>
<path d="M0.711366 19.4535L0.137166 20.0315C0.0750463 20.0938 0.0750463 20.1948 0.137166 20.2571C0.168111 20.2883 0.208683 20.3037 0.249255 20.3037C0.289827 20.3037 0.330399 20.2883 0.361345 20.2571L0.935548 19.6791C0.997438 19.6169 0.997438 19.5158 0.935548 19.4533C0.873658 19.3912 0.773256 19.3912 0.711366 19.4535Z" fill="#262626"/>
<path d="M18.1325 12.2275C18.1946 12.165 18.1946 12.0641 18.1325 12.0018L17.5583 11.4238C17.4964 11.3613 17.3962 11.3613 17.3339 11.4238C17.272 11.4861 17.272 11.5872 17.3339 11.6495L17.9083 12.2275C17.9393 12.2586 17.9798 12.2743 18.0202 12.2743C18.061 12.2743 18.1016 12.2586 18.1325 12.2275Z" fill="#262626"/>
<path d="M16.6313 10.9419C16.6623 10.973 16.7029 10.9885 16.7432 10.9885C16.784 10.9885 16.8243 10.973 16.8553 10.9419C16.9174 10.8793 16.9174 10.7785 16.8553 10.7162L16.2811 10.1382C16.2192 10.0757 16.1188 10.0757 16.0567 10.1382C15.9948 10.2005 15.9948 10.3016 16.0567 10.3639L16.6313 10.9419Z" fill="#262626"/>
<path d="M17.4459 10.9885C17.4865 10.9885 17.5271 10.973 17.558 10.9419L18.1322 10.3639C18.1943 10.3013 18.1943 10.2005 18.1322 10.1382C18.0703 10.0757 17.9699 10.0757 17.908 10.1382L17.3338 10.7162C17.2717 10.7785 17.2717 10.8796 17.3338 10.9419C17.365 10.973 17.4056 10.9885 17.4459 10.9885Z" fill="#262626"/>
<path d="M16.169 12.2742C16.2096 12.2742 16.2501 12.2587 16.2811 12.2276L16.8553 11.6496C16.9174 11.587 16.9174 11.4862 16.8553 11.4237C16.7934 11.3614 16.693 11.3614 16.6311 11.4237L16.0567 12.0017C15.9948 12.064 15.9948 12.165 16.0567 12.2276C16.0878 12.2587 16.1284 12.2742 16.169 12.2742Z" fill="#262626"/>
<path d="M18.1967 22.9663C18.1348 22.9038 18.0346 22.9038 17.9725 22.9663C17.9104 23.0286 17.9104 23.1297 17.9725 23.192L18.5467 23.7702C18.5776 23.8014 18.6184 23.8168 18.6588 23.8168C18.6991 23.8168 18.7399 23.8014 18.7709 23.7702C18.833 23.7077 18.833 23.6066 18.7709 23.5443L18.1967 22.9663Z" fill="#262626"/>
<path d="M16.9197 21.6807C16.8578 21.6182 16.7576 21.6182 16.6955 21.6807C16.6334 21.743 16.6334 21.8438 16.6955 21.9061L17.2697 22.4846C17.3007 22.5157 17.3415 22.5312 17.3818 22.5312C17.4221 22.5312 17.463 22.5157 17.4939 22.4846C17.556 22.422 17.556 22.321 17.4939 22.2587L16.9197 21.6807Z" fill="#262626"/>
<path d="M17.9724 22.4846C18.0036 22.5157 18.0442 22.5312 18.0845 22.5312C18.1253 22.5312 18.1657 22.5157 18.1966 22.4846L18.7708 21.9061C18.8329 21.8438 18.8329 21.7428 18.7708 21.6807C18.7087 21.6182 18.6083 21.6182 18.5464 21.6807L17.9724 22.2587C17.9106 22.3212 17.9106 22.422 17.9724 22.4846Z" fill="#262626"/>
<path d="M17.2697 22.9662L16.6955 23.5441C16.6334 23.6064 16.6334 23.7075 16.6955 23.77C16.7265 23.8012 16.767 23.8166 16.8076 23.8166C16.8482 23.8166 16.8887 23.8012 16.9195 23.77L17.4939 23.1918C17.5558 23.1295 17.5558 23.0285 17.4939 22.9662C17.432 22.9039 17.3314 22.9039 17.2697 22.9662Z" fill="#262626"/>
</g>
</g>
</g>
</g>
</g>
<defs>
<clipPath id="clip0_43_965">
<rect width="111" height="40" fill="white" transform="translate(-0.0672607 0.0493164)"/>
</clipPath>
<clipPath id="clip1_43_965">
<rect width="110.684" height="40.0987" fill="white" transform="translate(0.0905762)"/>
</clipPath>
<clipPath id="clip2_43_965">
<rect width="110.684" height="40.0987" fill="white" transform="translate(0.0905762)"/>
</clipPath>
<clipPath id="clip3_43_965">
<rect width="85.0339" height="39.8992" fill="white" transform="translate(25.741 0.0996094)"/>
</clipPath>
<clipPath id="clip4_43_965">
<rect width="85.0339" height="39.8992" fill="white" transform="translate(25.741 0.0996094)"/>
</clipPath>
<clipPath id="clip5_43_965">
<rect width="85.0339" height="39.8992" fill="white" transform="translate(25.741 0.0996094)"/>
</clipPath>
<clipPath id="clip6_43_965">
<rect width="85.0339" height="39.8992" fill="white" transform="translate(25.741 0.0996094)"/>
</clipPath>
<clipPath id="clip7_43_965">
<rect width="18.7269" height="19.9496" fill="white" transform="translate(0.0905762 10.0747)"/>
</clipPath>
<clipPath id="clip8_43_965">
<rect width="18.7269" height="19.9496" fill="white" transform="translate(0.0905762 10.0747)"/>
</clipPath>
</defs>
</svg>
