<svg width="29" height="12" viewBox="0 0 29 12" fill="none" xmlns="http://www.w3.org/2000/svg">
<path d="M0.677323 10.0767V7.64003C0.677323 6.51496 1.24743 6.01324 2.52512 6.01324C3.01502 6.01324 3.63417 6.0744 4.03002 6.16168C4.03002 6.16168 4.0469 6.16514 4.06608 6.16918C4.05656 6.254 4.01891 6.56877 4.00737 6.66499C3.99356 6.66286 3.97976 6.66065 3.96597 6.65836C3.59595 6.59907 3.0469 6.52809 2.53349 6.52809C1.56754 6.52809 1.24151 6.81084 1.24151 7.64869V10.0688C1.24151 10.7948 1.44088 11.1885 2.49266 11.1885C2.75016 11.1885 3.1802 11.1614 3.54445 11.0836L3.59609 11.0725V9.13656H4.15999V11.4642C4.14615 11.4681 4.13042 11.4727 4.13042 11.4727C3.63345 11.6174 3.00824 11.7032 2.45963 11.7032C1.2105 11.7029 0.677323 11.2165 0.677323 10.0767ZM10.0493 10.0767V6.0115C10.1458 6.01237 10.5179 6.01699 10.6126 6.01785V10.0686C10.6126 10.7947 10.812 11.1883 11.8638 11.1883H13.462V11.6906C13.3423 11.6912 11.8323 11.7029 11.8309 11.7029C10.5822 11.7029 10.0493 11.2165 10.0493 10.0767ZM23.4708 6.09503H23.5464C23.4227 6.28329 21.7535 8.81746 21.7535 8.81746C21.7535 8.81746 23.4793 11.4327 23.6041 11.6211H22.9832C22.9451 11.5641 21.4428 9.27548 21.4428 9.27548C21.4428 9.27548 19.9414 11.5641 19.9034 11.6211H19.2827C19.4073 11.4327 21.1331 8.81746 21.1331 8.81746C21.1331 8.81746 19.464 6.28329 19.3398 6.09503H19.9608C19.9986 6.1523 21.4427 8.35843 21.4427 8.35843C21.4427 8.35843 22.8878 6.1523 22.9256 6.09503H23.4708ZM28.2809 6.09503H28.3461C28.2583 6.27463 26.4659 9.91426 26.4659 9.91426V11.6211H25.9021V9.91426C25.9021 9.91426 24.1098 6.27463 24.0217 6.09503H24.6114C24.6456 6.16687 26.1802 9.32929 26.1802 9.32929C26.1802 9.32929 27.7218 6.16658 27.757 6.09503H28.2809ZM8.93651 11.6211H9.49652C9.43853 11.4548 7.60098 6.18014 7.57155 6.09503H6.80251C6.77308 6.18014 4.93552 11.4546 4.8771 11.6211H5.43754C5.47188 11.5233 5.77294 10.6481 6.1157 9.65098H8.25591C8.6128 10.6855 8.92425 11.5869 8.93651 11.6211ZM6.29213 9.13642C6.73514 7.84733 7.18292 6.54122 7.18292 6.54122C7.18292 6.54122 7.63387 7.84791 8.07804 9.13642H6.29213ZM18.2081 11.6211H18.7684C18.7104 11.4548 16.873 6.18014 16.8434 6.09503H16.0742C16.045 6.18014 14.207 11.4546 14.1488 11.6211H14.7096C14.7442 11.5233 15.0448 10.6481 15.3879 9.65098H17.5275C17.8844 10.6855 18.1958 11.5869 18.2081 11.6211ZM15.564 9.13642C16.0066 7.84733 16.4548 6.54122 16.4548 6.54122C16.4548 6.54122 16.9058 7.84791 17.3498 9.13642H15.564ZM1.27296 2.2383C1.15381 2.19776 1.05715 2.14265 0.982861 2.07384C0.908568 2.00489 0.85072 1.92944 0.81004 1.84808C0.76876 1.76528 0.739657 1.67694 0.723629 1.58582C0.706751 1.49277 0.698384 1.40146 0.698384 1.31245V1.23441C0.698384 0.93334 0.782919 0.701518 0.952567 0.539805C1.12135 0.378092 1.37899 0.296875 1.72492 0.296875H1.9201C2.1877 0.296875 2.39976 0.357463 2.55599 0.478351C2.71222 0.599095 2.79041 0.797161 2.79041 1.0724C2.79041 1.12809 2.77541 1.17555 2.74569 1.21464C2.71569 1.25345 2.66375 1.27307 2.58946 1.27307C2.51502 1.27307 2.46309 1.25345 2.43323 1.21464C2.40351 1.17555 2.38851 1.12794 2.38851 1.0724C2.38851 0.931177 2.3461 0.829908 2.26026 0.768454C2.17486 0.707 2.06119 0.676129 1.9201 0.676129H1.72492C1.5019 0.676129 1.34163 0.720127 1.24512 0.807259C1.14832 0.894679 1.10014 1.03692 1.10014 1.23426V1.31231C1.10014 1.46118 1.12611 1.58091 1.17819 1.67165C1.23026 1.76311 1.31956 1.83106 1.44593 1.87534L2.31047 2.18232C2.51502 2.25691 2.66952 2.37491 2.77353 2.53648C2.87769 2.69833 2.92976 2.89655 2.92976 3.13082V3.31994C2.92976 3.62158 2.84494 3.86235 2.67587 4.04282C2.50666 4.22314 2.24916 4.31345 1.90337 4.31345H1.52412C1.25637 4.31345 1.04431 4.25286 0.887939 4.13197C0.731996 4.01137 0.653809 3.81316 0.653809 3.53792C0.653809 3.48194 0.668523 3.43492 0.69824 3.39611C0.728101 3.35673 0.780034 3.33725 0.854471 3.33725C0.929053 3.33725 0.980841 3.35673 1.01085 3.39611C1.04042 3.43492 1.05557 3.48194 1.05557 3.53792C1.05557 3.67943 1.09812 3.7807 1.18396 3.84201C1.26892 3.90318 1.3826 3.93419 1.52412 3.93419H1.90337C2.12639 3.93419 2.28609 3.88096 2.38303 3.77508C2.47968 3.66905 2.52786 3.51772 2.52786 3.32009V3.13096C2.52786 2.98959 2.50175 2.87043 2.44982 2.77364C2.39774 2.67742 2.31768 2.60832 2.20992 2.56749L1.27296 2.2383ZM4.63085 1.35717C4.89859 1.35717 5.1095 1.4342 5.26414 1.5887C5.41836 1.74277 5.49553 1.94286 5.49553 2.18809V4.05667C5.49553 4.11264 5.48053 4.15981 5.45096 4.19905C5.4211 4.23814 5.36916 4.25776 5.29487 4.25776H4.40235C4.13475 4.25776 3.9237 4.19905 3.7692 4.08162C3.6147 3.96492 3.53781 3.78344 3.53781 3.53792V3.08596C3.53781 2.84101 3.61484 2.65924 3.7692 2.5421C3.9237 2.42511 4.13475 2.36625 4.40235 2.36625H5.10517V2.1992C5.10517 2.02436 5.06161 1.9016 4.97404 1.8312C4.88662 1.76051 4.77237 1.72503 4.631 1.72503H4.00622C3.95399 1.72503 3.90956 1.71103 3.87249 1.6829C3.83498 1.65506 3.81652 1.6076 3.81652 1.54095C3.81652 1.47387 3.83498 1.42656 3.87249 1.39872C3.90956 1.37087 3.95399 1.35688 4.00622 1.35688H4.63085V1.35717ZM5.10503 3.88933V2.73483H4.4022C4.26083 2.73483 4.14643 2.76513 4.05916 2.82687C3.97174 2.88832 3.92817 2.97819 3.92817 3.09735V3.53792C3.92817 3.64928 3.97159 3.73598 4.05916 3.79729C4.14643 3.8586 4.26083 3.88933 4.4022 3.88933H5.10503ZM8.95383 2.34995C8.95383 2.1529 8.9055 1.99941 8.8087 1.88963C8.71205 1.77985 8.55236 1.72517 8.32919 1.72517H8.01658V4.11249C8.01658 4.16818 8.00302 4.21578 7.97489 4.25488C7.94705 4.29383 7.8957 4.31345 7.8214 4.31345C7.74725 4.31345 7.69604 4.29383 7.6682 4.25488C7.64021 4.21578 7.62637 4.16818 7.62637 4.11249V1.72517H6.68912V4.11249C6.68912 4.16818 6.67527 4.21578 6.647 4.25488C6.61916 4.29383 6.56809 4.31345 6.49365 4.31345C6.41922 4.31345 6.36815 4.29383 6.34031 4.25488C6.31247 4.21578 6.29833 4.16818 6.29833 4.11249V1.55798C6.29833 1.50215 6.31247 1.45469 6.34031 1.41559C6.36829 1.37636 6.41936 1.35717 6.49365 1.35717H8.32876C8.67454 1.35717 8.93017 1.44733 9.09578 1.6278C9.2611 1.80783 9.3439 2.0486 9.3439 2.34995V4.10672C9.3439 4.1627 9.33019 4.2103 9.30221 4.24911C9.27437 4.2882 9.2233 4.30767 9.14872 4.30767C9.07443 4.30767 9.02336 4.28834 8.99523 4.24911C8.96768 4.2103 8.95354 4.1627 8.95354 4.10672V2.34995H8.95383ZM10.8335 4.31359C10.5881 4.31359 10.3938 4.26209 10.2506 4.15981C10.1075 4.05768 10.0359 3.8951 10.0359 3.67193C10.0359 3.61596 10.0496 3.56893 10.0774 3.52955C10.1053 3.49074 10.1565 3.47127 10.2309 3.47127C10.3054 3.47127 10.3554 3.49074 10.3815 3.52955C10.4074 3.56893 10.4225 3.6161 10.4261 3.67193C10.4375 3.86134 10.5734 3.95626 10.8334 3.95626H11.1178C11.2594 3.95626 11.3736 3.92366 11.4609 3.85874C11.5483 3.79383 11.592 3.7054 11.592 3.59418V3.35976C11.592 3.27464 11.5678 3.20468 11.5195 3.15044C11.4713 3.09649 11.4042 3.05855 11.3186 3.03604L10.5544 2.83538C10.4019 2.79455 10.2839 2.72012 10.2001 2.61236C10.1165 2.5046 10.0747 2.3612 10.0747 2.18276V2.0209C10.0747 1.77566 10.1517 1.59433 10.3061 1.47719C10.4602 1.35991 10.6716 1.30134 10.9392 1.30134H11.0839C11.3296 1.30134 11.5239 1.3527 11.6669 1.45483C11.81 1.55726 11.8818 1.71983 11.8818 1.94286C11.8818 1.99854 11.868 2.04615 11.8398 2.08524C11.812 2.12433 11.7611 2.14352 11.6866 2.14352C11.6121 2.14352 11.562 2.12448 11.5358 2.08524C11.5098 2.04615 11.4946 1.99854 11.4913 1.94286C11.4799 1.75316 11.3443 1.65838 11.0838 1.65838H10.9391C10.7977 1.65838 10.6835 1.69113 10.5961 1.75575C10.5088 1.8211 10.4649 1.90939 10.4649 2.0209V2.18276C10.4649 2.26801 10.49 2.33899 10.5404 2.39467C10.5906 2.4505 10.6582 2.48945 10.7438 2.51167L11.5024 2.70699C11.6588 2.7481 11.7775 2.82269 11.8596 2.9303C11.9413 3.03806 11.9827 3.18131 11.9827 3.3599V3.59432C11.9827 3.8397 11.9053 4.02075 11.7508 4.13832C11.5965 4.25531 11.3854 4.31388 11.1177 4.31388H10.8335V4.31359ZM13.0646 3.26469C13.0646 3.46189 13.1129 3.61509 13.2096 3.72458C13.3064 3.83437 13.4664 3.88933 13.6895 3.88933H14.3253V1.50215C14.3253 1.44632 14.3391 1.39886 14.3671 1.35991C14.3951 1.32096 14.446 1.3012 14.5207 1.3012C14.5949 1.3012 14.646 1.32082 14.6739 1.35991C14.7019 1.399 14.7161 1.44647 14.7161 1.50215V4.05667C14.7161 4.11264 14.7018 4.15981 14.6739 4.19905C14.6461 4.23814 14.5949 4.25776 14.5207 4.25776H13.6894C13.3434 4.25776 13.0878 4.16746 12.9224 3.98728C12.7569 3.80696 12.6742 3.56576 12.6742 3.26469V1.50749C12.6742 1.45195 12.6882 1.40434 12.7161 1.36554C12.7438 1.3263 12.795 1.30639 12.8694 1.30639C12.9439 1.30639 12.9948 1.3263 13.0228 1.36554C13.0506 1.40434 13.0645 1.45195 13.0645 1.50749L13.0646 3.26469ZM17.2148 2.34995C17.2148 2.1529 17.1666 1.99941 17.0698 1.88963C16.9728 1.77985 16.8133 1.72517 16.5903 1.72517H15.9542V4.11249C15.9542 4.16818 15.9404 4.21578 15.9125 4.25488C15.8845 4.29383 15.8332 4.31345 15.7592 4.31345C15.6848 4.31345 15.6337 4.29383 15.6056 4.25488C15.5781 4.21578 15.5642 4.16818 15.5642 4.11249V1.55798C15.5642 1.50215 15.5781 1.45469 15.6056 1.41559C15.6337 1.37636 15.6849 1.35717 15.7592 1.35717H16.5904C16.936 1.35717 17.1918 1.44733 17.3573 1.6278C17.5226 1.80783 17.6055 2.0486 17.6055 2.34995V4.10672C17.6055 4.1627 17.5914 4.2103 17.5633 4.24911C17.5359 4.2882 17.4847 4.30767 17.4099 4.30767C17.3361 4.30767 17.2846 4.28834 17.2569 4.24911C17.229 4.2103 17.2149 4.1627 17.2149 4.10672L17.2148 2.34995ZM20.3828 4.57527C20.3828 4.73179 20.3619 4.87461 20.3192 5.00502C20.276 5.13514 20.211 5.24838 20.1237 5.34518C20.0367 5.44197 19.9285 5.51713 19.8003 5.57123C19.6722 5.62489 19.5223 5.65201 19.3515 5.65201H18.8381C18.7863 5.65201 18.7413 5.63816 18.7041 5.60989C18.6668 5.58277 18.6481 5.53488 18.6481 5.46808C18.6481 5.40072 18.6668 5.35383 18.7041 5.32556C18.7413 5.29786 18.7861 5.28358 18.8381 5.28358H19.3515C19.5745 5.28358 19.737 5.21664 19.8392 5.08292C19.9418 4.9489 19.9929 4.77954 19.9929 4.57513V4.25747H19.357C19.0113 4.25747 18.7553 4.16717 18.5901 3.98699C18.4245 3.80667 18.3418 3.56547 18.3418 3.2644V2.43333C18.3418 2.2771 18.363 2.134 18.4059 2.00359C18.4489 1.87376 18.5136 1.76023 18.6012 1.66329C18.6883 1.56707 18.7964 1.49147 18.9245 1.43767C19.0529 1.38357 19.2026 1.35674 19.3736 1.35674H20.1882C20.2626 1.35674 20.3137 1.37592 20.3415 1.41516C20.3695 1.45426 20.3829 1.50172 20.3829 1.55754V4.57527H20.3828ZM19.3734 1.72517C19.1505 1.72517 18.9877 1.79211 18.8854 1.92583C18.7833 2.05985 18.7321 2.22921 18.7321 2.43362V3.26469C18.7321 3.46189 18.7805 3.61509 18.8775 3.72458C18.9738 3.83437 19.1335 3.88933 19.3568 3.88933H19.9927V1.72517H19.3734Z" fill="black"/>
</svg>
