<svg width="37" height="24" viewBox="0 0 37 24" fill="none" xmlns="http://www.w3.org/2000/svg">
<path d="M4.67732 16.0767V13.64C4.67732 12.515 5.24743 12.0132 6.52512 12.0132C7.01502 12.0132 7.63417 12.0744 8.03002 12.1617C8.03002 12.1617 8.0469 12.1651 8.06608 12.1692C8.05656 12.254 8.01891 12.5688 8.00737 12.665C7.99356 12.6629 7.97976 12.6606 7.96597 12.6584C7.59595 12.5991 7.0469 12.5281 6.53349 12.5281C5.56754 12.5281 5.24151 12.8108 5.24151 13.6487V16.0688C5.24151 16.7948 5.44088 17.1885 6.49266 17.1885C6.75016 17.1885 7.1802 17.1614 7.54445 17.0836L7.59609 17.0725V15.1366H8.15999V17.4642C8.14615 17.4681 8.13042 17.4727 8.13042 17.4727C7.63345 17.6174 7.00824 17.7032 6.45963 17.7032C5.2105 17.7029 4.67732 17.2165 4.67732 16.0767ZM14.0493 16.0767V12.0115C14.1458 12.0124 14.5179 12.017 14.6126 12.0179V16.0686C14.6126 16.7947 14.812 17.1883 15.8638 17.1883H17.462V17.6906C17.3423 17.6912 15.8323 17.7029 15.8309 17.7029C14.5822 17.7029 14.0493 17.2165 14.0493 16.0767ZM27.4708 12.095H27.5464C27.4227 12.2833 25.7535 14.8175 25.7535 14.8175C25.7535 14.8175 27.4793 17.4327 27.6041 17.6211H26.9832C26.9451 17.5641 25.4428 15.2755 25.4428 15.2755C25.4428 15.2755 23.9414 17.5641 23.9034 17.6211H23.2827C23.4073 17.4327 25.1331 14.8175 25.1331 14.8175C25.1331 14.8175 23.464 12.2833 23.3398 12.095H23.9608C23.9986 12.1523 25.4427 14.3584 25.4427 14.3584C25.4427 14.3584 26.8878 12.1523 26.9256 12.095H27.4708ZM32.2809 12.095H32.3461C32.2583 12.2746 30.4659 15.9143 30.4659 15.9143V17.6211H29.9021V15.9143C29.9021 15.9143 28.1098 12.2746 28.0217 12.095H28.6114C28.6456 12.1669 30.1802 15.3293 30.1802 15.3293C30.1802 15.3293 31.7218 12.1666 31.757 12.095H32.2809ZM12.9365 17.6211H13.4965C13.4385 17.4548 11.601 12.1801 11.5715 12.095H10.8025C10.7731 12.1801 8.93552 17.4546 8.8771 17.6211H9.43754C9.47188 17.5233 9.77294 16.6481 10.1157 15.651H12.2559C12.6128 16.6855 12.9243 17.5869 12.9365 17.6211ZM10.2921 15.1364C10.7351 13.8473 11.1829 12.5412 11.1829 12.5412C11.1829 12.5412 11.6339 13.8479 12.078 15.1364H10.2921ZM22.2081 17.6211H22.7684C22.7104 17.4548 20.873 12.1801 20.8434 12.095H20.0742C20.045 12.1801 18.207 17.4546 18.1488 17.6211H18.7096C18.7442 17.5233 19.0448 16.6481 19.3879 15.651H21.5275C21.8844 16.6855 22.1958 17.5869 22.2081 17.6211ZM19.564 15.1364C20.0066 13.8473 20.4548 12.5412 20.4548 12.5412C20.4548 12.5412 20.9058 13.8479 21.3498 15.1364H19.564ZM5.27296 8.2383C5.15381 8.19776 5.05715 8.14265 4.98286 8.07384C4.90857 8.00489 4.85072 7.92944 4.81004 7.84808C4.76876 7.76528 4.73966 7.67694 4.72363 7.58582C4.70675 7.49277 4.69838 7.40146 4.69838 7.31245V7.23441C4.69838 6.93334 4.78292 6.70152 4.95257 6.53981C5.12135 6.37809 5.37899 6.29688 5.72492 6.29688H5.9201C6.1877 6.29688 6.39976 6.35746 6.55599 6.47835C6.71222 6.5991 6.79041 6.79716 6.79041 7.0724C6.79041 7.12809 6.77541 7.17555 6.74569 7.21464C6.71569 7.25345 6.66375 7.27307 6.58946 7.27307C6.51502 7.27307 6.46309 7.25345 6.43323 7.21464C6.40351 7.17555 6.38851 7.12794 6.38851 7.0724C6.38851 6.93118 6.3461 6.82991 6.26026 6.76845C6.17486 6.707 6.06119 6.67613 5.9201 6.67613H5.72492C5.5019 6.67613 5.34163 6.72013 5.24512 6.80726C5.14832 6.89468 5.10014 7.03692 5.10014 7.23426V7.31231C5.10014 7.46118 5.12611 7.58091 5.17819 7.67165C5.23026 7.76311 5.31956 7.83106 5.44593 7.87534L6.31047 8.18232C6.51502 8.25691 6.66952 8.37491 6.77353 8.53648C6.87769 8.69833 6.92976 8.89655 6.92976 9.13082V9.31994C6.92976 9.62158 6.84494 9.86235 6.67587 10.0428C6.50666 10.2231 6.24916 10.3134 5.90337 10.3134H5.52412C5.25637 10.3134 5.04431 10.2529 4.88794 10.132C4.732 10.0114 4.65381 9.81316 4.65381 9.53792C4.65381 9.48194 4.66852 9.43492 4.69824 9.39611C4.7281 9.35673 4.78003 9.33725 4.85447 9.33725C4.92905 9.33725 4.98084 9.35673 5.01085 9.39611C5.04042 9.43492 5.05557 9.48194 5.05557 9.53792C5.05557 9.67943 5.09812 9.7807 5.18396 9.84201C5.26892 9.90318 5.3826 9.93419 5.52412 9.93419H5.90337C6.12639 9.93419 6.28609 9.88096 6.38303 9.77508C6.47968 9.66905 6.52786 9.51772 6.52786 9.32009V9.13096C6.52786 8.98959 6.50175 8.87043 6.44982 8.77364C6.39774 8.67742 6.31768 8.60832 6.20992 8.56749L5.27296 8.2383ZM8.63085 7.35717C8.89859 7.35717 9.1095 7.4342 9.26414 7.5887C9.41836 7.74277 9.49553 7.94286 9.49553 8.18809V10.0567C9.49553 10.1126 9.48053 10.1598 9.45096 10.199C9.4211 10.2381 9.36916 10.2578 9.29487 10.2578H8.40235C8.13475 10.2578 7.9237 10.199 7.7692 10.0816C7.6147 9.96492 7.53781 9.78344 7.53781 9.53792V9.08596C7.53781 8.84101 7.61484 8.65924 7.7692 8.5421C7.9237 8.42511 8.13475 8.36625 8.40235 8.36625H9.10517V8.1992C9.10517 8.02436 9.06161 7.9016 8.97404 7.8312C8.88662 7.76051 8.77237 7.72503 8.631 7.72503H8.00622C7.95399 7.72503 7.90956 7.71103 7.87249 7.6829C7.83498 7.65506 7.81652 7.6076 7.81652 7.54095C7.81652 7.47387 7.83498 7.42656 7.87249 7.39872C7.90956 7.37087 7.95399 7.35688 8.00622 7.35688H8.63085V7.35717ZM9.10503 9.88933V8.73483H8.4022C8.26083 8.73483 8.14643 8.76513 8.05916 8.82687C7.97174 8.88832 7.92817 8.97819 7.92817 9.09735V9.53792C7.92817 9.64928 7.97159 9.73598 8.05916 9.79729C8.14643 9.8586 8.26083 9.88933 8.4022 9.88933H9.10503ZM12.9538 8.34995C12.9538 8.1529 12.9055 7.99941 12.8087 7.88963C12.712 7.77985 12.5524 7.72517 12.3292 7.72517H12.0166V10.1125C12.0166 10.1682 12.003 10.2158 11.9749 10.2549C11.9471 10.2938 11.8957 10.3134 11.8214 10.3134C11.7473 10.3134 11.696 10.2938 11.6682 10.2549C11.6402 10.2158 11.6264 10.1682 11.6264 10.1125V7.72517H10.6891V10.1125C10.6891 10.1682 10.6753 10.2158 10.647 10.2549C10.6192 10.2938 10.5681 10.3134 10.4937 10.3134C10.4192 10.3134 10.3681 10.2938 10.3403 10.2549C10.3125 10.2158 10.2983 10.1682 10.2983 10.1125V7.55798C10.2983 7.50215 10.3125 7.45469 10.3403 7.41559C10.3683 7.37636 10.4194 7.35717 10.4937 7.35717H12.3288C12.6745 7.35717 12.9302 7.44733 13.0958 7.6278C13.2611 7.80783 13.3439 8.0486 13.3439 8.34995V10.1067C13.3439 10.1627 13.3302 10.2103 13.3022 10.2491C13.2744 10.2882 13.2233 10.3077 13.1487 10.3077C13.0744 10.3077 13.0234 10.2883 12.9952 10.2491C12.9677 10.2103 12.9535 10.1627 12.9535 10.1067V8.34995H12.9538ZM14.8335 10.3136C14.5881 10.3136 14.3938 10.2621 14.2506 10.1598C14.1075 10.0577 14.0359 9.8951 14.0359 9.67193C14.0359 9.61596 14.0496 9.56893 14.0774 9.52955C14.1053 9.49074 14.1565 9.47127 14.2309 9.47127C14.3054 9.47127 14.3554 9.49074 14.3815 9.52955C14.4074 9.56893 14.4225 9.6161 14.4261 9.67193C14.4375 9.86134 14.5734 9.95626 14.8334 9.95626H15.1178C15.2594 9.95626 15.3736 9.92366 15.4609 9.85874C15.5483 9.79383 15.592 9.7054 15.592 9.59418V9.35976C15.592 9.27464 15.5678 9.20468 15.5195 9.15044C15.4713 9.09649 15.4042 9.05855 15.3186 9.03604L14.5544 8.83538C14.4019 8.79455 14.2839 8.72012 14.2001 8.61236C14.1165 8.5046 14.0747 8.3612 14.0747 8.18276V8.0209C14.0747 7.77566 14.1517 7.59433 14.3061 7.47719C14.4602 7.35991 14.6716 7.30134 14.9392 7.30134H15.0839C15.3296 7.30134 15.5239 7.3527 15.6669 7.45483C15.81 7.55726 15.8818 7.71983 15.8818 7.94286C15.8818 7.99854 15.868 8.04615 15.8398 8.08524C15.812 8.12433 15.7611 8.14352 15.6866 8.14352C15.6121 8.14352 15.562 8.12448 15.5358 8.08524C15.5098 8.04615 15.4946 7.99854 15.4913 7.94286C15.4799 7.75316 15.3443 7.65838 15.0838 7.65838H14.9391C14.7977 7.65838 14.6835 7.69113 14.5961 7.75575C14.5088 7.8211 14.4649 7.90939 14.4649 8.0209V8.18276C14.4649 8.26801 14.49 8.33899 14.5404 8.39467C14.5906 8.4505 14.6582 8.48945 14.7438 8.51167L15.5024 8.70699C15.6588 8.7481 15.7775 8.82269 15.8596 8.9303C15.9413 9.03806 15.9827 9.18131 15.9827 9.3599V9.59432C15.9827 9.8397 15.9053 10.0207 15.7508 10.1383C15.5965 10.2553 15.3854 10.3139 15.1177 10.3139H14.8335V10.3136ZM17.0646 9.26469C17.0646 9.46189 17.1129 9.61509 17.2096 9.72458C17.3064 9.83437 17.4664 9.88933 17.6895 9.88933H18.3253V7.50215C18.3253 7.44632 18.3391 7.39886 18.3671 7.35991C18.3951 7.32096 18.446 7.3012 18.5207 7.3012C18.5949 7.3012 18.646 7.32082 18.6739 7.35991C18.7019 7.399 18.7161 7.44647 18.7161 7.50215V10.0567C18.7161 10.1126 18.7018 10.1598 18.6739 10.199C18.6461 10.2381 18.5949 10.2578 18.5207 10.2578H17.6894C17.3434 10.2578 17.0878 10.1675 16.9224 9.98728C16.7569 9.80696 16.6742 9.56576 16.6742 9.26469V7.50749C16.6742 7.45195 16.6882 7.40434 16.7161 7.36554C16.7438 7.3263 16.795 7.30639 16.8694 7.30639C16.9439 7.30639 16.9948 7.3263 17.0228 7.36554C17.0506 7.40434 17.0645 7.45195 17.0645 7.50749L17.0646 9.26469ZM21.2148 8.34995C21.2148 8.1529 21.1666 7.99941 21.0698 7.88963C20.9728 7.77985 20.8133 7.72517 20.5903 7.72517H19.9542V10.1125C19.9542 10.1682 19.9404 10.2158 19.9125 10.2549C19.8845 10.2938 19.8332 10.3134 19.7592 10.3134C19.6848 10.3134 19.6337 10.2938 19.6056 10.2549C19.5781 10.2158 19.5642 10.1682 19.5642 10.1125V7.55798C19.5642 7.50215 19.5781 7.45469 19.6056 7.41559C19.6337 7.37636 19.6849 7.35717 19.7592 7.35717H20.5904C20.936 7.35717 21.1918 7.44733 21.3573 7.6278C21.5226 7.80783 21.6055 8.0486 21.6055 8.34995V10.1067C21.6055 10.1627 21.5914 10.2103 21.5633 10.2491C21.5359 10.2882 21.4847 10.3077 21.4099 10.3077C21.3361 10.3077 21.2846 10.2883 21.2569 10.2491C21.229 10.2103 21.2149 10.1627 21.2149 10.1067L21.2148 8.34995ZM24.3828 10.5753C24.3828 10.7318 24.3619 10.8746 24.3192 11.005C24.276 11.1351 24.211 11.2484 24.1237 11.3452C24.0367 11.442 23.9285 11.5171 23.8003 11.5712C23.6722 11.6249 23.5223 11.652 23.3515 11.652H22.8381C22.7863 11.652 22.7413 11.6382 22.7041 11.6099C22.6668 11.5828 22.6481 11.5349 22.6481 11.4681C22.6481 11.4007 22.6668 11.3538 22.7041 11.3256C22.7413 11.2979 22.7861 11.2836 22.8381 11.2836H23.3515C23.5745 11.2836 23.737 11.2166 23.8392 11.0829C23.9418 10.9489 23.9929 10.7795 23.9929 10.5751V10.2575H23.357C23.0113 10.2575 22.7553 10.1672 22.5901 9.98699C22.4245 9.80667 22.3418 9.56547 22.3418 9.2644V8.43333C22.3418 8.2771 22.363 8.134 22.4059 8.00359C22.4489 7.87376 22.5136 7.76023 22.6012 7.66329C22.6883 7.56707 22.7964 7.49147 22.9245 7.43767C23.0529 7.38357 23.2026 7.35674 23.3736 7.35674H24.1882C24.2626 7.35674 24.3137 7.37592 24.3415 7.41516C24.3695 7.45426 24.3829 7.50172 24.3829 7.55754V10.5753H24.3828ZM23.3734 7.72517C23.1505 7.72517 22.9877 7.79211 22.8854 7.92583C22.7833 8.05985 22.7321 8.22921 22.7321 8.43362V9.26469C22.7321 9.46189 22.7805 9.61509 22.8775 9.72458C22.9738 9.83437 23.1335 9.88933 23.3568 9.88933H23.9927V7.72517H23.3734Z" fill="black"/>
</svg>
